<svg xmlns="http://www.w3.org/2000/svg" width="1500" height="1500"><path d="M425 424.983V475h-50v50H275V574.981l49.75.26 49.75.259.267 24.75.268 24.75H425v49.5c0 27.225.337 49.505.75 49.511.413.007 11.438.119 24.5.25l23.751.239-.001-49.75V625h50v-50h100V526.019l-49.75-.26-49.75-.259-.267-24.628-.267-24.628-24.474-.734-24.473-.734-.26-49.638-.259-49.638-24.75-.267-24.75-.268v50.018" fill="#f1eaed" fill-rule="evenodd"/><path d="M300.67 300.663c-.369.369-.67 22.866-.67 49.994v49.324l-49.75.26-49.75.259-.253 149.75-.254 149.75H300v100.019l49.75-.26 49.75-.259.255-87.25.256-87.25h-24.976l-.268-24.75-.267-24.75-49.75-.259-49.75-.26V525h100v-50h50V374.965l24.75.268 24.75.267.259 49.638.26 49.638 24.473.734 24.474.734.267 24.628.267 24.628 49.733.259 49.732.26.286 24.74.286 24.741.231-25.25L625 525H525v-50h-25v-75h100.035l-.054 49.75-.054 49.75 49.518.259 49.518.26.268-49.26c.148-27.092.13-49.596-.04-50.009-.17-.413-22.553-.75-49.741-.75h-49.431l-.26-49.75-.259-49.75-149.08-.253c-81.994-.14-149.382.048-149.75.416m599 0c-.369.369-.67 22.868-.67 49.999v49.328l99.75.255 99.75.255.255 99.75.255 99.75H1199v100h-100v100H998.981l.26 49.75.259 49.75h99l.259-49.741.26-49.74 49.74-.26 49.741-.259.259-49.741.26-49.74 49.74-.26 49.741-.259v-299l-49.741-.259-49.74-.26-.26-49.74-.259-49.741-149.08-.253c-81.994-.14-149.382.048-149.75.416M524.206 600.25c.207 25.408.562 22.496 1.037-8.501.141-9.214-.08-16.751-.493-16.75-.413 0-.657 11.363-.544 25.251m-99.72 74.167c.012 43.514.206 49.969 1.514 50.326 1.101.3 1.17.175.26-.47-.953-.675-1.305-12.368-1.515-50.326l-.274-49.447.015 49.917m49.739.833c.124 27.638.348 42.375.498 32.75.696-44.797.708-83.001.027-83-.413 0-.649 22.612-.525 50.25m-35.475 49.497c6.188.175 16.313.175 22.5 0 6.188-.176 1.125-.319-11.25-.319s-17.437.143-11.25.319" fill="#f3bfd2" fill-rule="evenodd"/><path d="M299 150v50H199v100H99v100H0v301h98.981l.26 49.75.259 49.75 49.75.259 49.75.26v98.943l2.25.556c1.238.306 23.738.427 50 .269l47.751-.287-.001 49.75V1000h100v100h100v100h100v100h100v100h101v-100h100v-100h100v-100h100v-99.981l49.75-.26 49.75-.259.222-49.322.223-49.323 48.876.107c41.105.09 49.064-.119 50.056-1.314.878-1.058 1.108-13.82.901-50.025l-.278-48.605 49.5-.259 49.5-.259.259-49.75.26-49.75h49.409c27.174 0 50.12-.273 50.99-.607 1.433-.55 1.575-14.76 1.503-151.25-.043-82.854-.268-150.193-.5-149.643-.276.657-17.642.829-50.671.5l-50.25-.5-.259-49.741-.26-49.74-49.536-.26-49.536-.259-.205-49.5-.204-49.5-49.741-.259-49.74-.26-.26-49.74-.259-49.741h-301l-.259 49.75-.26 49.75h-49.49c-38.919 0-49.494.267-49.505 1.25-.007.688-.12 23.075-.25 49.75l-.236 48.5-49.25.259-49.25.26V200H600V100H299v50m149.759 50.753-148.74.254-.26 49.524-.259 49.525-49.5.222-49.5.222-.259 49.741-.26 49.74-49.74.26-49.741.259-.253 149.75L99.993 700H200v100h100v100h100v100h99.981l.26 49.75.259 49.75 48.5.236c26.675.13 49.071.243 49.768.25 1.007.011 1.256 10.138 1.213 49.264l-.055 49.25 49.537.259 49.537.26V1299h99.981l.26-49.75.259-49.75 49.5-.222 49.5-.222.259-49.519.26-49.518 49.74-.26 49.741-.259.259-49.741.26-49.74 49.74-.26 49.741-.259.259-49.741.26-49.74 49.74-.26 49.741-.259.259-49.741.26-49.74 49.74-.26 49.741-.259.259-49.741.26-49.74 49.74-.26 49.741-.259v-299l-49.741-.259-49.74-.26-.26-49.74-.259-49.741-49.741-.259-49.74-.26-.26-49.491c-.142-27.22-.597-49.49-1.009-49.49H899.019l-.26 49.528-.259 49.528-49.5.222-49.5.222-.259 49.75-.26 49.75H699v-99.981l-49.537-.26-49.537-.259.055-49.136c.043-38.856-.211-49.213-1.213-49.5-.698-.2-68.201-.25-150.009-.111M.487 550.5c0 83.05.118 117.173.263 75.829.144-41.345.144-109.295 0-151C.605 433.623.487 467.45.487 550.5" fill="#112e4c" fill-rule="evenodd"/><path d="m448.759 200.753-148.74.254-.26 49.524-.259 49.525-49.5.222-49.5.222-.259 49.741-.26 49.74-49.74.26-49.741.259-.253 149.75L99.993 700H200v100h100v100h100v100h99.981l.26 49.75.259 49.75 48.5.236c26.675.13 49.071.243 49.768.25 1.007.011 1.256 10.138 1.213 49.264l-.055 49.25 49.537.259 49.537.26V1299h99.981l.26-49.75.259-49.75 49.5-.222 49.5-.222.259-49.519.26-49.518 49.74-.26 49.741-.259.259-49.741.26-49.74 49.74-.26 49.741-.259.259-49.741.26-49.74 49.74-.26 49.741-.259.259-49.741.26-49.74 49.74-.26 49.741-.259.259-49.741.26-49.74 49.74-.26 49.741-.259v-299l-49.741-.259-49.74-.26-.26-49.74-.259-49.741-49.741-.259-49.74-.26-.26-49.491c-.142-27.22-.597-49.49-1.009-49.49H899.019l-.26 49.528-.259 49.528-49.5.222-49.5.222-.259 49.75-.26 49.75H699v-99.981l-49.537-.26-49.537-.259.055-49.136c.043-38.856-.211-49.213-1.213-49.5-.698-.2-68.201-.25-150.009-.111m-148.089 99.91c-.369.369-.67 22.866-.67 49.994v49.324l-49.75.26-49.75.259-.253 149.75-.254 149.75H300v100.019l49.75-.26 49.75-.259.255-87.25.256-87.25h23.97l.26 49.75.259 49.75 25.241.267 25.24.267.26-49.767.259-49.767 24.733-.267 24.732-.268.268-24.732.267-24.733 48.5-.236c26.675-.13 49.063-.243 49.75-.25.966-.011 1.25-5.688 1.25-25.014v-25H525v-50h-25v-75h100.035l-.054 49.75-.054 49.75 49.518.259 49.518.26.268-49.26c.148-27.092.13-49.596-.04-50.009-.17-.413-22.553-.75-49.741-.75h-49.431l-.26-49.75-.259-49.75-149.08-.253c-81.994-.14-149.382.048-149.75.416m599 0c-.369.369-.67 22.868-.67 49.999v49.328l99.75.255 99.75.255.255 99.75.255 99.75H1199v100h-100v100H998.981l.26 49.75.259 49.75h99l.259-49.741.26-49.74 49.74-.26 49.741-.259.259-49.741.26-49.74 49.74-.26 49.741-.259v-299l-49.741-.259-49.74-.26-.26-49.74-.259-49.741-149.08-.253c-81.994-.14-149.382.048-149.75.416" fill="#ee7ba2" fill-rule="evenodd"/></svg>